<?xml version="1.0" encoding="utf-8"?>
<svg version="1.1" xmlns:xlink="http://www.w3.org/1999/xlink" width="7px" height="19px" xmlns="http://www.w3.org/2000/svg">
  <g transform="matrix(1 0 0 1 -328 -264 )">
    <path d="M 6.76909722222222 8.6650390625  C 6.92303240740741 8.90006510416667  7 9.17838541666667  7 9.5  C 7 9.82161458333333  6.92303240740741 10.0999348958333  6.76909722222222 10.3349609375  L 1.32465277777778 18.6474609375  C 1.17071759259259 18.8824869791667  0.988425925925926 19  0.777777777777778 19  C 0.56712962962963 19  0.384837962962963 18.8824869791667  0.230902777777778 18.6474609375  C 0.0769675925925926 18.4124348958333  0 18.1341145833333  0 17.8125  L 0 1.1875  C 0 0.865885416666664  0.0769675925925926 0.587565104166664  0.230902777777778 0.3525390625  C 0.384837962962963 0.117513020833332  0.56712962962963 0  0.777777777777778 0  C 0.988425925925926 0  1.17071759259259 0.117513020833332  1.32465277777778 0.3525390625  L 6.76909722222222 8.6650390625  Z " fill-rule="nonzero" fill="#d7d7d7" stroke="none" transform="matrix(1 0 0 1 328 264 )" />
  </g>
</svg>