<?xml version="1.0" encoding="utf-8"?>
<svg version="1.1" xmlns:xlink="http://www.w3.org/1999/xlink" width="7px" height="19px" xmlns="http://www.w3.org/2000/svg">
  <g transform="matrix(1 0 0 1 -37 -264 )">
    <path d="M 6.76909722222222 0.3525390625  C 6.92303240740741 0.587565104166664  7 0.865885416666664  7 1.1875  L 7 17.8125  C 7 18.1341145833333  6.92303240740741 18.4124348958333  6.76909722222222 18.6474609375  C 6.61516203703704 18.8824869791667  6.43287037037037 19  6.22222222222222 19  C 6.01157407407407 19  5.82928240740741 18.8824869791667  5.67534722222222 18.6474609375  L 0.230902777777778 10.3349609375  C 0.0769675925925927 10.0999348958333  0 9.82161458333333  0 9.5  C 0 9.17838541666667  0.0769675925925927 8.90006510416667  0.230902777777778 8.6650390625  L 5.67534722222222 0.3525390625  C 5.82928240740741 0.117513020833332  6.01157407407407 0  6.22222222222222 0  C 6.43287037037037 0  6.61516203703704 0.117513020833332  6.76909722222222 0.3525390625  Z " fill-rule="nonzero" fill="#8c8c8c" stroke="none" transform="matrix(1 0 0 1 37 264 )" />
  </g>
</svg>