<?xml version="1.0" encoding="utf-8"?>
<svg version="1.1" xmlns:xlink="http://www.w3.org/1999/xlink" width="64px" height="75px" xmlns="http://www.w3.org/2000/svg">
  <g transform="matrix(1 0 0 1 -211 -1477 )">
    <path d="M 48.1666666666667 2.84598214285715  L 61.1666666666667 15.9040178571429  C 61.9444444444445 16.6852678571429  62.6111111111111 17.7455357142857  63.1666666666667 19.0848214285714  C 63.7222222222222 20.4241071428571  64 21.6517857142857  64 22.7678571428571  L 64 70.9821428571429  C 64 72.0982142857143  63.6111111111111 73.046875  62.8333333333333 73.828125  C 62.0555555555556 74.609375  61.1111111111111 75  60 75  L 4 75  C 2.88888888888889 75  1.94444444444444 74.609375  1.16666666666667 73.828125  C 0.388888888888889 73.046875  0 72.0982142857143  0 70.9821428571429  L 0 4.01785714285715  C 0 2.90178571428571  0.388888888888889 1.953125  1.16666666666667 1.171875  C 1.94444444444444 0.390625000000003  2.88888888888889 0  4 0  L 41.3333333333333 0  C 42.4444444444445 0  43.6666666666667 0.27901785714286  45 0.837053571428573  C 46.3333333333333 1.39508928571428  47.3888888888889 2.06473214285714  48.1666666666667 2.84598214285715  Z M 44.375 6.61272321428572  C 44.0416666666667 6.27790178571428  43.4722222222222 5.97098214285713  42 5.69196428571428  L 42 22  L 58.3333333333333 22  C 58.0555555555556 20.6194196428571  57.75 20.0474330357143  57.4166666666667 19.7126116071429  L 44.375 6.61272321428572  Z M 6 69  L 58 69  L 58 27  L 41.3333333333333 27  C 40.2222222222222 26.7857142857143  39.2777777777778 26.3950892857143  38.5 25.6138392857143  C 37.7222222222222 24.8325892857143  37.3333333333333 23.8839285714286  37 22.7678571428571  L 37 6  L 6 6  L 6 69  Z M 16 36.1607142857143  L 16 33.4821428571429  C 16 33.0915178571429  16.125 32.7706473214286  16.375 32.51953125  C 16.625 32.2684151785714  16.9444444444444 32.1428571428571  17.3333333333333 33  L 46.6666666666667 33  C 47.0555555555556 32.1428571428571  47.375 32.2684151785714  47.625 32.51953125  C 47.875 32.7706473214286  48 33.0915178571429  48 33.4821428571429  L 48 36.1607142857143  C 48 36.5513392857143  47.875 36.8722098214286  47.625 37.1233258928571  C 47.375 37.3744419642857  47.0555555555556 37.5  46.6666666666667 37  L 17.3333333333333 37  C 16.9444444444444 37.5  16.625 37.3744419642857  16.375 37.1233258928571  C 16.125 36.8722098214286  16 36.5513392857143  16 36.1607142857143  Z M 17.3333333333333 42  L 46.6666666666667 42  C 47.0555555555556 42.8571428571429  47.375 42.9827008928571  47.625 43.2338169642857  C 47.875 43.4849330357143  48 43.8058035714286  48 44.1964285714286  L 48 46.875  C 48 47.265625  47.875 47.5864955357143  47.625 47.8376116071429  C 47.375 48.0887276785714  47.0555555555556 48.2142857142857  46.6666666666667 48  L 17.3333333333333 48  C 16.9444444444444 48.2142857142857  16.625 48.0887276785714  16.375 47.8376116071429  C 16.125 47.5864955357143  16 47.265625  16 46.875  L 16 44.1964285714286  C 16 43.8058035714286  16.125 43.4849330357143  16.375 43.2338169642857  C 16.625 42.9827008928571  16.9444444444444 42.8571428571429  17.3333333333333 42  Z M 17.3333333333333 53  L 46.6666666666667 53  C 47.0555555555556 53.5714285714286  47.375 53.6969866071429  47.625 53.9481026785714  C 47.875 54.19921875  48 54.5200892857143  48 54.9107142857143  L 48 57.5892857142857  C 48 57.9799107142857  47.875 58.30078125  47.625 58.5518973214286  C 47.375 58.8030133928571  47.0555555555556 58.9285714285714  46.6666666666667 59  L 17.3333333333333 59  C 16.9444444444444 58.9285714285714  16.625 58.8030133928571  16.375 58.5518973214286  C 16.125 58.30078125  16 57.9799107142857  16 57.5892857142857  L 16 54.9107142857143  C 16 54.5200892857143  16.125 54.19921875  16.375 53.9481026785714  C 16.625 53.6969866071429  16.9444444444444 53.5714285714286  17.3333333333333 53  Z " fill-rule="nonzero" fill="#2699fb" stroke="none" transform="matrix(1 0 0 1 211 1477 )" />
  </g>
</svg>