<?xml version="1.0" encoding="utf-8"?>
<svg version="1.1" xmlns:xlink="http://www.w3.org/1999/xlink" width="97px" height="75px" xmlns="http://www.w3.org/2000/svg">
  <g transform="matrix(1 0 0 1 -1075 -1477 )">
    <path d="M 89.5571986607143 67.67578125  C 89.9000186011905 67.3384232954545  90.0714285714286 66.9389204545455  90 66.4772727272727  L 90 25.5681818181818  C 88.9166666666667 26.8465909090909  87.6716889880953 28.0184659090909  86.3364955357143 29.0838068181818  C 76.6653645833333 36.3991477272727  68.9789806547619 42.4005681818182  63.27734375 47.0880681818182  C 61.4369419642857 48.6150568181818  59.9393601190476 49.8046875  58.7845982142857 50.6569602272727  C 57.6298363095238 51.5092329545455  56.0691034226191 52.3703835227273  54.1023995535714 53.2404119318182  C 52.1356956845238 54.1104403409091  50.2862723214286 54.5454545454545  48.5541294642857 54.5454545454545  L 48.5 54.5454545454545  L 48.4458705357143 54.5454545454545  C 46.7137276785714 54.5454545454545  44.8643043154762 54.1104403409091  42.8976004464286 53.2404119318182  C 40.930896577381 52.3703835227273  39.3701636904762 51.5092329545455  38.2154017857143 50.6569602272727  C 37.0606398809524 49.8046875  35.5630580357143 48.6150568181818  33.72265625 47.0880681818182  C 28.0210193452381 42.4005681818182  20.3346354166667 36.3991477272727  10.6635044642857 29.0838068181818  C 9.32831101190476 28.0184659090909  8.08333333333333 26.8465909090909  7 25.5681818181818  L 7 66.4772727272727  C 6.92857142857143 66.9389204545455  7.09998139880952 67.3384232954545  7.44280133928571 67.67578125  C 7.78562127976191 68.0131392045455  8.19159226190476 68.1818181818182  8.66071428571429 68  L 88.3392857142857 68  C 88.8084077380952 68.1818181818182  89.2143787202381 68.0131392045455  89.5571986607143 67.67578125  Z M 87.5544084821429 17.4982244318182  C 89.232421875 14.9236505681818  90.0714285714286 12.5887784090909  90.0714285714286 10.4936079545455  L 90.0714285714286 9.90767045454545  L 90.0714285714286 9.18856534090909  C 90.0714285714286 9.18856534090909  90.0624069940476 8.95774147727272  90.0443638392857 8.49609375  C 90.0263206845238 8.03444602272727  89.9721912202381 7.81249999999999  89.8819754464286 7.83025568181818  C 89.7917596726191 7.84801136363636  89.6925223214286 7.68821022727272  89.5842633928571 7.35085227272727  C 89.4760044642857 7.01349431818181  89.3136160714286 6.88032670454545  89.0970982142857 6.95134943181818  C 88.8805803571429 7.02237215909091  88.6279761904762 6.97798295454545  88.3392857142857 7  L 8.66071428571429 7  C 8.19159226190476 6.81818181818182  7.78562127976191 6.98686079545454  7.44280133928571 7.32421875  C 7.09998139880952 7.66157670454545  6.92857142857143 8.06107954545454  6.92857142857143 8.52272727272727  C 6.92857142857143 14.4886363636364  9.58091517857143 19.53125  14.8856026785714 23.6505681818182  C 21.8502604166667 29.0482954545454  29.0855654761905 34.6768465909091  36.5915178571429 40.5362215909091  C 36.8080357142857 40.7137784090909  37.4395461309524 41.2375710227273  38.4860491071429 42.1075994318182  C 39.5325520833333 42.9776278409091  40.362537202381 43.6434659090909  40.9760044642857 44.1051136363636  C 41.5894717261905 44.5667613636364  42.3923921130952 45.1260653409091  43.384765625 45.7830255681818  C 44.3771391369048 46.4399857954545  45.288318452381 46.9282670454545  46.1183035714286 47.2478693181818  C 46.9482886904762 47.5674715909091  47.7241443452381 47.7272727272727  48.4458705357143 47.7272727272727  L 48.5 47.7272727272727  L 48.5541294642857 47.7272727272727  C 49.2758556547619 47.7272727272727  50.0517113095238 47.5674715909091  50.8816964285714 47.2478693181818  C 51.7116815476191 46.9282670454545  52.6228608630952 46.4399857954545  53.615234375 45.7830255681818  C 54.6076078869048 45.1260653409091  55.4105282738095 44.5667613636364  56.0239955357143 44.1051136363636  C 56.6374627976191 43.6434659090909  57.4674479166667 42.9776278409091  58.5139508928571 42.1075994318182  C 59.5604538690476 41.2375710227273  60.1919642857143 40.7137784090909  60.4084821428571 40.5362215909091  C 67.9144345238095 34.6768465909091  75.1497395833333 29.0482954545454  82.1143973214286 23.6505681818182  C 84.0630580357143 22.1235795454545  85.8763950892857 20.0727982954545  87.5544084821429 17.4982244318182  Z M 94.4559151785714 2.50355113636363  C 96.1519717261905 4.17258522727272  97 6.17897727272727  97 8.52272727272727  L 97 66.4772727272727  C 97 68.8210227272727  96.1519717261905 70.8274147727273  94.4559151785714 72.4964488636364  C 92.7598586309524 74.1654829545455  90.7209821428572 75  88.3392857142857 75  L 8.66071428571429 75  C 6.27901785714286 75  4.24014136904762 74.1654829545455  2.54408482142857 72.4964488636364  C 0.848028273809524 70.8274147727273  0 68.8210227272727  0 66.4772727272727  L 0 8.52272727272727  C 0 6.17897727272727  0.848028273809524 4.17258522727272  2.54408482142857 2.50355113636363  C 4.24014136904762 0.834517045454536  6.27901785714286 0  8.66071428571429 0  L 88.3392857142857 0  C 90.7209821428572 0  92.7598586309524 0.834517045454536  94.4559151785714 2.50355113636363  Z " fill-rule="nonzero" fill="#2699fb" stroke="none" transform="matrix(1 0 0 1 1075 1477 )" />
  </g>
</svg>