<?xml version="1.0" encoding="utf-8"?>
<svg version="1.1" xmlns:xlink="http://www.w3.org/1999/xlink" width="18px" height="33px" xmlns="http://www.w3.org/2000/svg">
  <g transform="matrix(1 0 0 1 -1170 -2097 )">
    <path d="M 17.40625 15.0498046875  C 17.8020833333333 15.4580078125  18 15.94140625  18 16.5  C 18 17.05859375  17.8020833333333 17.5419921875  17.40625 17.9501953125  L 3.40625 32.3876953125  C 3.01041666666667 32.7958984375  2.54166666666667 33  2 33  C 1.45833333333333 33  0.989583333333333 32.7958984375  0.59375 32.3876953125  C 0.197916666666667 31.9794921875  0 31.49609375  0 30.9375  L 0 2.0625  C 0 1.50390625  0.197916666666667 1.0205078125  0.59375 0.6123046875  C 0.989583333333333 0.204101562499998  1.45833333333333 0  2 0  C 2.54166666666667 0  3.01041666666667 0.204101562499998  3.40625 0.6123046875  L 17.40625 15.0498046875  Z " fill-rule="nonzero" fill="#2699fb" stroke="none" transform="matrix(1 0 0 1 1170 2097 )" />
  </g>
</svg>