<?xml version="1.0" encoding="utf-8"?>
<svg version="1.1" xmlns:xlink="http://www.w3.org/1999/xlink" width="99px" height="75px" xmlns="http://www.w3.org/2000/svg">
  <g transform="matrix(1 0 0 1 -781 -1477 )">
    <path d="M 97.2116129032258 10.3535353535354  C 98.403870967742 11.5319865319865  99 12.962962962963  99 14.6464646464646  C 99 16.3299663299663  98.403870967742 17.7609427609428  97.2116129032258 18.9393939393939  L 50.9690322580645 64.6464646464647  L 42.2825806451613 73.2323232323232  C 41.0903225806452 74.4107744107744  39.6425806451613 75  37.9393548387097 75  C 36.2361290322581 75  34.7883870967742 74.4107744107744  33.5961290322581 73.2323232323232  L 24.9096774193548 64.6464646464647  L 1.78838709677419 41.7929292929293  C 0.596129032258065 40.6144781144781  0 39.1835016835017  0 37.5  C 0 35.8164983164983  0.596129032258065 34.3855218855219  1.78838709677419 33.2070707070707  L 10.4748387096774 24.6212121212121  C 11.6670967741935 23.4427609427609  13.1148387096774 22.8535353535353  14.818064516129 22.8535353535354  C 16.5212903225807 22.8535353535353  17.9690322580645 23.4427609427609  19.1612903225806 24.6212121212121  L 37.9393548387097 43.2449494949495  L 79.8387096774193 1.76767676767677  C 81.0309677419355 0.589225589225587  82.4787096774194 0  84.181935483871 0  C 85.8851612903226 0  87.3329032258065 0.589225589225587  88.5251612903226 1.76767676767677  L 97.2116129032258 10.3535353535354  Z " fill-rule="nonzero" fill="#2699fb" stroke="none" transform="matrix(1 0 0 1 781 1477 )" />
  </g>
</svg>