<?xml version="1.0" encoding="utf-8"?>
<svg version="1.1" xmlns:xlink="http://www.w3.org/1999/xlink" width="75px" height="75px" xmlns="http://www.w3.org/2000/svg">
  <g transform="matrix(1 0 0 1 -499 -1477 )">
    <path d="M 1.50501672240803 59  L 73.494983277592 59  L 74.9581939799331 72.0284598214286  C 75.0418060200669 72.8097098214286  74.8188405797101 73.5072544642857  74.2892976588629 74.12109375  C 73.7597547380156 74.70703125  73.0908584169454 75  72.2826086956522 75  L 2.71739130434783 75  C 1.90914158305463 75  1.24024526198439 74.70703125  0.710702341137124 74.12109375  C 0.181159420289855 73.5072544642857  -0.0418060200668896 72.8097098214286  0.0418060200668896 72.0284598214286  L 1.50501672240803 59  Z M 68.7290969899666 22.119140625  C 69.2307692307692 22.5795200892857  69.5234113712375 23.14453125  69.6070234113712 23.8141741071429  L 73.2023411371237 56  L 1.79765886287625 56  L 5.39297658862876 23.8141741071429  C 5.47658862876254 23.14453125  5.76923076923077 22.5795200892857  6.27090301003344 22.119140625  C 6.77257525083612 21.6587611607143  7.37179487179487 21.4285714285714  8.0685618729097 22  L 18.7709030100334 22  L 18.7709030100334 26.7857142857143  C 18.7709030100334 28.2645089285714  19.2934782608696 29.5270647321429  20.3386287625418 30.5733816964286  C 21.383779264214 31.6196986607143  22.6449275362319 32.1428571428571  24.1220735785953 32.1428571428571  C 25.5992196209588 32.1428571428571  26.8603678929766 31.6196986607143  27.9055183946488 30.5733816964286  C 28.9506688963211 29.5270647321429  29.4732441471572 28.2645089285714  29.4732441471572 26.7857142857143  L 29.4732441471572 22  L 45.5267558528428 22  L 45.5267558528428 26.7857142857143  C 45.5267558528428 28.2645089285714  46.0493311036789 29.5270647321429  47.0944816053512 30.5733816964286  C 48.1396321070234 31.6196986607143  49.4007803790413 32.1428571428571  50.8779264214047 32.1428571428571  C 52.3550724637681 32.1428571428571  53.616220735786 31.6196986607143  54.6613712374582 30.5733816964286  C 55.7065217391304 29.5270647321429  56.2290969899666 28.2645089285714  56.2290969899666 26.7857142857143  L 56.2290969899666 22  L 66.9314381270903 22  C 67.6282051282051 21.4285714285714  68.2274247491639 21.6587611607143  68.7290969899666 22.119140625  Z M 48.8503344481605 4.70842633928572  C 51.9857859531773 7.84737723214286  53.5535117056856 11.6350446428571  53 16.0714285714286  L 53 26.7857142857143  C 53.5535117056856 27.5111607142857  53.288740245262 28.1389508928571  52.7591973244147 28.6690848214286  C 52.2296544035675 29.19921875  51.6025641025641 29.4642857142857  50.8779264214047 29.4642857142857  C 50.1532887402453 29.4642857142857  49.5261984392419 29.19921875  48.9966555183946 28.6690848214286  C 48.4671125975474 28.1389508928571  48.2023411371238 27.5111607142857  48 26.7857142857143  L 48 16.0714285714286  C 48.2023411371238 13.1138392857143  47.1571906354515 10.5887276785714  45.066889632107 8.49609375  C 42.9765886287625 6.40345982142857  40.4542920847269 5.35714285714286  37.5 5.35714285714286  C 34.5457079152731 5.35714285714286  32.0234113712375 6.40345982142857  29.933110367893 8.49609375  C 27.8428093645485 10.5887276785714  26.7976588628763 13.1138392857143  27 16.0714285714286  L 27 26.7857142857143  C 26.7976588628763 27.5111607142857  26.5328874024526 28.1389508928571  26.0033444816054 28.6690848214286  C 25.4738015607581 29.19921875  24.8467112597547 29.4642857142857  24.1220735785953 29.4642857142857  C 23.3974358974359 29.4642857142857  22.7703455964326 29.19921875  22.2408026755853 28.6690848214286  C 21.711259754738 28.1389508928571  21.4464882943144 27.5111607142857  22 26.7857142857143  L 22 16.0714285714286  C 21.4464882943144 11.6350446428571  23.0142140468227 7.84737723214286  26.1496655518395 4.70842633928572  C 29.2851170568562 1.56947544642857  33.0685618729097 0  37.5 0  C 41.9314381270903 0  45.7148829431438 1.56947544642857  48.8503344481605 4.70842633928572  Z " fill-rule="nonzero" fill="#2699fb" stroke="none" transform="matrix(1 0 0 1 499 1477 )" />
  </g>
</svg>