<?xml version="1.0" encoding="utf-8"?>
<svg version="1.1" xmlns:xlink="http://www.w3.org/1999/xlink" width="40px" height="33px" xmlns="http://www.w3.org/2000/svg">
  <g transform="matrix(1 0 0 1 -32 -24 )">
    <path d="M 39.5052083333333 26.88984375  C 39.8350694444444 27.21640625  40 27.603125  40 28.05  L 40 31.35  C 40 31.796875  39.8350694444444 32.18359375  39.5052083333333 32.51015625  C 39.1753472222222 32.83671875  38.7847222222222 33  38.3333333333333 33  L 1.66666666666667 33  C 1.21527777777778 33  0.824652777777778 32.83671875  0.494791666666667 32.51015625  C 0.164930555555556 32.18359375  0 31.796875  0 31.35  L 0 28.05  C 0 27.603125  0.164930555555556 27.21640625  0.494791666666667 26.88984375  C 0.824652777777778 26.56328125  1.21527777777778 26.4  1.66666666666667 26  L 38.3333333333333 26  C 38.7847222222222 26.4  39.1753472222222 26.56328125  39.5052083333333 26.88984375  Z M 39.5052083333333 13.68984375  C 39.8350694444444 14.01640625  40 14.403125  40 14.85  L 40 18.15  C 40 18.596875  39.8350694444444 18.98359375  39.5052083333333 19.31015625  C 39.1753472222222 19.63671875  38.7847222222222 19.8  38.3333333333333 19.8  L 1.66666666666667 19.8  C 1.21527777777778 19.8  0.824652777777778 19.63671875  0.494791666666667 19.31015625  C 0.164930555555556 18.98359375  0 18.596875  0 18.15  L 0 14.85  C 0 14.403125  0.164930555555556 14.01640625  0.494791666666667 13.68984375  C 0.824652777777778 13.36328125  1.21527777777778 13.2  1.66666666666667 13.2  L 38.3333333333333 13.2  C 38.7847222222222 13.2  39.1753472222222 13.36328125  39.5052083333333 13.68984375  Z M 39.5052083333333 0.489843750000001  C 39.8350694444444 0.816406249999998  40 1.203125  40 1.65  L 40 4.95  C 40 5.396875  39.8350694444444 5.78359375  39.5052083333333 6.11015625  C 39.1753472222222 6.43671875  38.7847222222222 6.6  38.3333333333333 7  L 1.66666666666667 7  C 1.21527777777778 6.6  0.824652777777778 6.43671875  0.494791666666667 6.11015625  C 0.164930555555556 5.78359375  0 5.396875  0 4.95  L 0 1.65  C 0 1.203125  0.164930555555556 0.816406249999998  0.494791666666667 0.489843750000001  C 0.824652777777778 0.163281249999998  1.21527777777778 0  1.66666666666667 0  L 38.3333333333333 0  C 38.7847222222222 0  39.1753472222222 0.163281249999998  39.5052083333333 0.489843750000001  Z " fill-rule="nonzero" fill="#ffffff" stroke="none" transform="matrix(1 0 0 1 32 24 )" />
  </g>
</svg>